<?xml version="1.0" encoding="UTF-8" standalone="no"?>
<svg width="22px" height="18px" viewBox="0 0 22 18" version="1.1" xmlns="http://www.w3.org/2000/svg" xmlns:xlink="http://www.w3.org/1999/xlink">
    <!-- Generator: Sketch 43.1 (39012) - http://www.bohemiancoding.com/sketch -->
    <title>icon-linkedin-blue</title>
    <desc>Created with Sketch.</desc>
    <defs></defs>
    <g id="Symbols" stroke="none" stroke-width="1" fill="none" fill-rule="evenodd">
        <g id="icon-linkedin-blue" fill="#007AB7">
            <path d="M2.46504161,5.37798118 L6.06036329,5.37798118 L6.06036329,16.7700005 L2.46504161,16.7700005 L2.46504161,5.37798118 Z M15.8837422,5.26847138 C18.4389708,5.26847138 20.4466505,6.907118 20.4466505,10.4354337 L20.4466505,16.7700005 L16.3697857,16.7700005 L16.3697857,10.874473 C16.3697857,9.33183494 15.7322287,8.27824068 14.3296032,8.27824068 C13.2570072,8.27824068 12.6604538,8.9893043 12.382929,9.67436559 C12.2789197,9.91988756 12.2949211,10.2624182 12.2949211,10.6054489 L12.2949211,16.7700005 L8.25605975,16.7700005 C8.25605975,16.7700005 8.3080644,6.3270661 8.25605975,5.37798118 L12.2949211,5.37798118 L12.2949211,7.16564113 C12.5334425,6.3840712 13.8240579,5.26847138 15.8837422,5.26847138 Z M4.1961965,0 C5.5228152,0 6.33838817,0.850576103 6.36439049,1.97517672 C6.36439049,3.07877547 5.5228152,3.95285367 4.17119426,3.95285367 L4.14519194,3.95285367 C2.84407552,3.95285367 2,3.08227578 2,1.97817699 C2,0.852576282 2.86857771,0 4.1961965,0 Z" id="Linkedin"></path>
        </g>
    </g>
</svg>