<?xml version="1.0" encoding="UTF-8" standalone="no"?>
<svg width="22px" height="18px" viewBox="0 0 22 18" version="1.1" xmlns="http://www.w3.org/2000/svg" xmlns:xlink="http://www.w3.org/1999/xlink">
    <!-- Generator: Sketch 43.1 (39012) - http://www.bohemiancoding.com/sketch -->
    <title>icon-google-red</title>
    <desc>Created with Sketch.</desc>
    <defs></defs>
    <g id="Symbols" stroke="none" stroke-width="1" fill="none" fill-rule="evenodd">
        <g id="icon-google-red" fill="#DD4B39">
            <path d="M7.40874964,7.14870056 L13.5634894,7.14870056 C13.9920061,10.2253204 12.6989557,14.8400002 7.40874964,14.8400002 C3.86961178,14.8400002 1,11.9653882 1,8.41975007 C1,4.87411195 3.86961178,2 7.40874964,2 C9.06931432,2 10.5823733,2.63302466 11.7209176,3.67106509 C10.3798654,4.93961451 10.4238671,5.01511745 9.89684656,5.54313801 C9.2383209,4.99761677 8.52029294,4.60610151 7.40874964,4.60610151 C5.30616774,4.60610151 3.66510381,6.31366803 3.66510381,8.41975007 C3.66510381,10.5263321 5.30616774,12.2338986 7.40874964,12.2338986 C9.48633057,12.2338986 10.3303634,11.3363637 10.8733846,9.68779946 C9.87084554,9.68779946 7.40874964,9.6912996 7.40874964,9.6912996 L7.40874964,7.14870056 Z M18.9566995,7.2757055 L21.177286,7.2757055 L21.177286,8.8647674 L18.9566995,8.8647674 L18.9566995,11.1533565 L17.3706377,11.1533565 L17.3706377,8.8647674 L15.0860487,8.8647674 L15.0860487,7.2757055 L17.3706377,7.2757055 L17.3706377,5.05111885 L18.9566995,5.05111885 L18.9566995,7.2757055 Z" id="Google+"></path>
        </g>
    </g>
</svg>