<?xml version="1.0" encoding="UTF-8" standalone="no"?>
<svg width="58px" height="58px" viewBox="0 0 58 58" version="1.1" xmlns="http://www.w3.org/2000/svg" xmlns:xlink="http://www.w3.org/1999/xlink">
    <!-- Generator: Sketch 49.2 (51160) - http://www.bohemiancoding.com/sketch -->
    <title>social-pinterest</title>
    <desc>Created with Sketch.</desc>
    <defs></defs>
    <g id="Page-1" stroke="none" stroke-width="1" fill="none" fill-rule="evenodd">
        <g id="HP-April20-v1-FINAL" transform="translate(-892.000000, -6234.000000)">
            <g id="Group-4" transform="translate(-289.000000, 5477.000000)">
                <g id="social-pinterest" transform="translate(1181.533333, 758.000000)">
                    <circle id="Oval-2-Copy" stroke="#FFFFFF" cx="28" cy="28" r="28"></circle>
                    <path d="M16.8,24.9806403 C16.8,27.7469745 17.8522491,30.2076664 20.1084019,31.124593 C20.4785945,31.2754699 20.8099013,31.130037 20.917226,30.7225141 C20.9918867,30.4394257 21.1684282,29.7278159 21.2477551,29.4315063 C21.3550799,29.027872 21.313861,28.8863277 21.0152182,28.5348003 C20.3642703,27.7710837 19.9481925,26.7818295 19.9481925,25.3811638 C19.9481925,21.3168224 23.0038368,17.6778915 27.9034447,17.6778915 C32.2430974,17.6778915 34.6267955,20.317458 34.6267955,23.8412871 C34.6267955,28.4788048 32.5650716,32.3922694 29.5039833,32.3922694 C27.8140074,32.3922694 26.5486642,31.0009363 26.953854,29.2946284 C27.4399262,27.2570137 28.380962,25.0584119 28.380962,23.5877518 C28.380962,22.2718571 27.6709077,21.1729451 26.2010254,21.1729451 C24.4737192,21.1729451 23.0854969,22.9531359 23.0854969,25.3360563 C23.0854969,26.854157 23.6003446,27.8807415 23.6003446,27.8807415 C23.6003446,27.8807415 21.8325972,35.3382558 21.5222887,36.6448179 C20.9047826,39.2462764 21.4297406,42.4341323 21.4740704,42.7561066 C21.499735,42.9474246 21.7462708,42.9925321 21.8574841,42.8486547 C22.0169158,42.6410047 24.0747511,40.1118738 24.7746951,37.5858537 C24.9730125,36.8703554 25.9117152,33.1645409 25.9117152,33.1645409 C26.4732258,34.2307889 28.1134279,35.1694915 29.8586215,35.1694915 C35.0529836,35.1694915 38.5768127,30.4557577 38.5768127,24.147707 C38.5768127,19.3764222 34.5171376,14.9333333 28.3475203,14.9333333 C20.6706902,14.9333333 16.8,20.4123393 16.8,24.9806403 Z" id="Path" fill="#FFFFFF"></path>
                </g>
            </g>
        </g>
    </g>
</svg>