<?xml version="1.0" encoding="UTF-8" standalone="no"?>
<svg width="58px" height="58px" viewBox="0 0 58 58" version="1.1" xmlns="http://www.w3.org/2000/svg" xmlns:xlink="http://www.w3.org/1999/xlink">
    <!-- Generator: Sketch 49.2 (51160) - http://www.bohemiancoding.com/sketch -->
    <title>social-facebook</title>
    <desc>Created with Sketch.</desc>
    <defs>
        <polygon id="path-1" points="0 0 16 0 16 29.3333333 0 29.3333333"></polygon>
    </defs>
    <g id="Page-1" stroke="none" stroke-width="1" fill="none" fill-rule="evenodd">
        <g id="HP-April20-v1-FINAL" transform="translate(-477.000000, -6234.000000)">
            <g id="Group-4" transform="translate(-289.000000, 5477.000000)">
                <g id="social-facebook" transform="translate(767.133333, 758.000000)">
                    <g id="Page-1-Copy" transform="translate(21.333333, 13.333333)">
                        <mask id="mask-2" fill="white">
                            <use xlink:href="#path-1"></use>
                        </mask>
                        <g id="Clip-2"></g>
                        <path d="M16,5.21052632 L11.4823529,5.21052632 C10.9176471,5.21052632 10.3529412,5.98245614 10.3529412,6.94736842 L10.3529412,10.2280702 L16,10.2280702 L15.0588235,15.0526316 L10.1628235,15.0526316 L10.1628235,29.3333333 L4.89411765,29.3333333 L4.89411765,15.0526316 L0,15.0526316 L0,10.2280702 L4.89411765,10.2280702 L4.89411765,7.33333333 C4.89411765,3.28070175 7.52941176,0 11.2941176,0 L15.8098824,0 L15.8098824,5.21052632 L16,5.21052632 Z" id="Fill-1" fill="#FFFFFF" mask="url(#mask-2)"></path>
                    </g>
                    <circle id="Oval" stroke="#FFFFFF" cx="28" cy="28" r="28"></circle>
                </g>
            </g>
        </g>
    </g>
</svg>