<?xml version="1.0" encoding="UTF-8" standalone="no"?>
<svg width="58px" height="58px" viewBox="0 0 58 58" version="1.1" xmlns="http://www.w3.org/2000/svg" xmlns:xlink="http://www.w3.org/1999/xlink">
    <!-- Generator: Sketch 49.2 (51160) - http://www.bohemiancoding.com/sketch -->
    <title>social-google</title>
    <desc>Created with Sketch.</desc>
    <defs></defs>
    <g id="Page-1" stroke="none" stroke-width="1" fill="none" fill-rule="evenodd">
        <g id="HP-April20-v1-FINAL" transform="translate(-643.000000, -6234.000000)">
            <g id="Group-4" transform="translate(-289.000000, 5477.000000)">
                <g id="social-google" transform="translate(933.266667, 758.000000)">
                    <g id="google+-with-circle-copy-2" transform="translate(14.000000, 14.000000)" fill="#FFFFFF">
                        <path d="M13.1069474,26.8208889 C11.3296842,27.7324444 9.41684211,27.8288889 8.67705263,27.8288889 L8.456,27.8288889 L8.29684211,27.8288889 C7.14147368,27.8288889 1.39115789,27.5488889 1.39115789,22.0204444 C1.39115789,16.5884444 7.65431579,16.1622222 9.57305263,16.1622222 L9.62315789,16.1622222 C8.51494737,14.6004444 8.74484211,13.0262222 8.74484211,13.0262222 C8.64757895,13.0324444 8.50610526,13.0386667 8.33221053,13.0386667 C7.61010526,13.0386667 6.216,12.9173333 5.01936842,12.1022222 C3.55157895,11.1066667 2.80884211,9.41111111 2.80884211,7.06533333 C2.80884211,0.435555556 9.66736842,0.168 9.73515789,0.161777778 L16.5848421,0.161777778 L16.5848421,0.320444444 C16.5848421,1.12933333 15.2084211,1.288 14.2711579,1.42177778 C13.9528421,1.47155556 13.3132632,1.53688889 13.1334737,1.63333333 C14.8694737,2.61333333 15.1494737,4.15022222 15.1494737,6.44 C15.1494737,9.04711111 14.1827368,10.4253333 13.1570526,11.3928889 C12.5204211,11.9933333 12.0223158,12.4631111 12.0223158,13.0946667 C12.0223158,13.7137778 12.7061053,14.3453333 13.5018947,15.0826667 C14.8016842,16.2928889 16.5848421,17.9386667 16.5848421,20.7168889 C16.5848421,23.5884444 15.4147368,25.6417778 13.1069474,26.8208889 L13.1069474,26.8208889 Z M28,14 L23.5789474,14 L23.5789474,18.6666667 L20.6315789,18.6666667 L20.6315789,14 L16.2105263,14 L16.2105263,10.8888889 L20.6315789,10.8888889 L20.6315789,6.22222222 L23.5789474,6.22222222 L23.5789474,10.8888889 L28,10.8888889 L28,14 L28,14 Z M9.49936842,17.5777778 C9.34610526,17.5777778 9.19284211,17.584 9.03663158,17.5964444 C7.728,17.6991111 6.51957895,18.2155556 5.64715789,19.0555556 C4.78063158,19.8831111 4.33852632,20.9284444 4.40042105,21.9831111 C4.53305263,24.1951111 6.78189474,25.4893333 9.51410526,25.284 C12.2021053,25.0786667 13.9941053,23.4422222 13.8644211,21.2302222 C13.7406316,19.152 12.0282105,17.5777778 9.49936842,17.5777778 L9.49936842,17.5777778 Z M12.0753684,5.55333333 C11.3621053,2.90888889 10.2126316,2.12488889 8.42652632,2.12488889 C8.23494737,2.12488889 8.04042105,2.156 7.85473684,2.20888889 C7.07957895,2.44222222 6.46357895,3.12355556 6.12168421,4.13777778 C5.77094737,5.16444444 5.75031579,6.23466667 6.05094737,7.45422222 C6.59621053,9.63511111 8.064,11.2155556 9.54357895,11.2155556 C9.73810526,11.2155556 9.93263158,11.1906667 10.1153684,11.1315556 C11.7334737,10.6524444 12.7473684,8.04533333 12.0753684,5.55333333 L12.0753684,5.55333333 Z" id="Shape"></path>
                    </g>
                    <circle id="Oval-2-Copy" stroke="#FFFFFF" cx="28" cy="28" r="28"></circle>
                </g>
            </g>
        </g>
    </g>
</svg>