<?xml version="1.0" encoding="UTF-8" standalone="no"?>
<svg width="58px" height="58px" viewBox="0 0 58 58" version="1.1" xmlns="http://www.w3.org/2000/svg" xmlns:xlink="http://www.w3.org/1999/xlink">
    <!-- Generator: Sketch 49.2 (51160) - http://www.bohemiancoding.com/sketch -->
    <title>social-twitter</title>
    <desc>Created with Sketch.</desc>
    <defs></defs>
    <g id="Page-1" stroke="none" stroke-width="1" fill="none" fill-rule="evenodd">
        <g id="HP-April20-v1-FINAL" transform="translate(-395.000000, -6234.000000)">
            <g id="Group-4" transform="translate(-289.000000, 5477.000000)">
                <g id="social-twitter" transform="translate(685.000000, 758.000000)">
                    <g id="twitter-with-circle-copy-3" transform="translate(14.000000, 16.800000)" fill="#FFFFFF">
                        <path d="M24.7726316,6.3392 C24.7844211,6.5688 24.7873684,6.7984 24.7873684,7.0224 C24.7873684,14.0224 19.1844211,22.0892 8.93347368,22.0892 C5.78568421,22.0892 2.856,21.2156 0.392,19.7092 C0.825263158,19.7596 1.27031579,19.7792 1.72126316,19.7792 C4.33263158,19.7792 6.73473684,18.9364 8.64168421,17.514 C6.20421053,17.4692 4.14694737,15.9404 3.43663158,13.8404 C3.77557895,13.8992 4.12336842,13.9328 4.48294737,13.9328 C4.98989474,13.9328 5.48505263,13.8684 5.95073684,13.748 C3.40126316,13.2608 1.47957895,11.1216 1.47957895,8.5568 L1.47957895,8.4924 C2.23115789,8.8872 3.09178947,9.128 4.00547368,9.156 C2.50821053,8.204 1.52673684,6.5856 1.52673684,4.746 C1.52673684,3.7772 1.80084211,2.8644 2.28126316,2.0832 C5.03115789,5.2864 9.13389474,7.392 13.7671579,7.6188 C13.6698947,7.2296 13.6227368,6.8264 13.6227368,6.4092 C13.6227368,3.4888 16.1162105,1.1144 19.1962105,1.1144 C20.7966316,1.1144 22.2467368,1.7584 23.2635789,2.7888 C24.5338947,2.548 25.7246316,2.1112 26.8004211,1.5036 C26.3848421,2.7384 25.5035789,3.7772 24.3511579,4.4352 C25.48,4.3036 26.5528421,4.0208 27.552,3.598 C26.8063158,4.6592 25.8602105,5.5944 24.7726316,6.3392 L24.7726316,6.3392 Z" id="Shape"></path>
                    </g>
                    <circle id="Oval-2" stroke="#FFFFFF" cx="28" cy="28" r="28"></circle>
                </g>
            </g>
        </g>
    </g>
</svg>