<?xml version="1.0" encoding="UTF-8" standalone="no"?>
<svg width="58px" height="58px" viewBox="0 0 58 58" version="1.1" xmlns="http://www.w3.org/2000/svg" xmlns:xlink="http://www.w3.org/1999/xlink">
    <!-- Generator: Sketch 49.2 (51160) - http://www.bohemiancoding.com/sketch -->
    <title>social-insta</title>
    <desc>Created with Sketch.</desc>
    <defs></defs>
    <g id="Page-1" stroke="none" stroke-width="1" fill="none" fill-rule="evenodd">
        <g id="HP-April20-v1-FINAL" transform="translate(-725.000000, -6234.000000)">
            <g id="Group-4" transform="translate(-289.000000, 5477.000000)">
                <g id="social-insta" transform="translate(1015.400000, 758.000000)">
                    <path d="M36.4,28 C36.4,32.6396 32.6396,36.4 28,36.4 C23.3604,36.4 19.6,32.6396 19.6,28 C19.6,27.5212 19.6504,27.0536 19.7372,26.6 L16.8,26.6 L16.8,37.7916 C16.8,38.57 17.43,39.2 18.2084,39.2 L37.7944,39.2 C38.57,39.2 39.2,38.57 39.2,37.7916 L39.2,26.6 L36.2628,26.6 C36.3496,27.0536 36.4,27.5212 36.4,28 L36.4,28 Z M28,33.6 C31.0912,33.6 33.6,31.0912 33.6,28 C33.6,24.9088 31.0912,22.4 28,22.4 C24.9088,22.4 22.4,24.9088 22.4,28 C22.4,31.0912 24.9088,33.6 28,33.6 L28,33.6 Z M34.72,22.12 L38.0772,22.12 C38.542,22.12 38.92,21.742 38.92,21.28 L38.92,17.9228 C38.92,17.458 38.542,17.08 38.0772,17.08 L34.72,17.08 C34.2552,17.08 33.8772,17.458 33.8772,17.9228 L33.8772,21.28 C33.88,21.742 34.258,22.12 34.72,22.12 L34.72,22.12 Z M42,38.8892 C42,40.6 40.6,42 38.8892,42 L17.1108,42 C15.4,42 14,40.6 14,38.8892 L14,17.1108 C14,15.4 15.4,14 17.1108,14 L38.8892,14 C40.6,14 42,15.4 42,17.1108 L42,38.8892 L42,38.8892 Z" id="Shape-Copy" fill="#FFFFFF"></path>
                    <circle id="Oval-2" stroke="#FFFFFF" cx="28" cy="28" r="28"></circle>
                </g>
            </g>
        </g>
    </g>
</svg>