<?xml version="1.0" encoding="UTF-8"?>
<!DOCTYPE svg PUBLIC "-//W3C//DTD SVG 1.1//EN" "http://www.w3.org/Graphics/SVG/1.1/DTD/svg11.dtd">
<!-- Creator: CorelDRAW 2017 -->
<svg xmlns="http://www.w3.org/2000/svg" xml:space="preserve" width="0.854165in" height="0.854165in" version="1.1" style="shape-rendering:geometricPrecision; text-rendering:geometricPrecision; image-rendering:optimizeQuality; fill-rule:evenodd; clip-rule:evenodd"
viewBox="0 0 854.17 854.17"
 xmlns:xlink="http://www.w3.org/1999/xlink">
 <defs>
  <style type="text/css">
   <![CDATA[
    .str1 {stroke:#FF5B24;stroke-width:10.42;stroke-miterlimit:2.61313}
    .str0 {stroke:#FF5B24;stroke-width:20.83;stroke-miterlimit:2.61313}
    .fil2 {fill:none}
    .fil1 {fill:#FF5B24}
    .fil0 {fill:white}
   ]]>
  </style>
 </defs>
 <g id="Layer_x0020_1">
  <metadata id="CorelCorpID_0Corel-Layer"/>
  <circle id="Oval-4-Copy-40" class="fil0 str0" cx="427.08" cy="427.08" r="416.67"/>
  <g>
   <path id="Fill-1" class="fil1" d="M389.36 525.29c-75.52,0 -136.75,-61.87 -136.75,-138.19 0,-76.32 61.23,-138.19 136.75,-138.19 75.53,0 136.75,61.87 136.75,138.19 0,76.33 -61.22,138.19 -136.75,138.19l0 0zm212.92 67.74l-102.66 -103.75c24.46,-26.93 39.52,-62.74 39.52,-102.19 0,-83.59 -67.06,-151.35 -149.78,-151.35 -82.72,0 -149.78,67.77 -149.78,151.35 0,83.59 67.06,151.35 149.78,151.35 39.04,0 74.47,-15.22 101.13,-39.94l102.67 103.74c2.52,2.55 6.6,2.55 9.12,0 2.52,-2.55 2.52,-6.67 0,-9.22z"/>
   <path id="1" class="fil2 str1" d="M389.36 525.29c-75.52,0 -136.75,-61.87 -136.75,-138.19 0,-76.32 61.23,-138.19 136.75,-138.19 75.53,0 136.75,61.87 136.75,138.19 0,76.33 -61.22,138.19 -136.75,138.19m212.92 67.74l-102.66 -103.75c24.46,-26.93 39.52,-62.74 39.52,-102.19 0,-83.59 -67.06,-151.35 -149.78,-151.35 -82.72,0 -149.78,67.77 -149.78,151.35 0,83.59 67.06,151.35 149.78,151.35 39.04,0 74.47,-15.22 101.13,-39.94l102.67 103.74c2.52,2.55 6.6,2.55 9.12,0 2.52,-2.55 2.52,-6.67 0,-9.22z"/>
  </g>
 </g>
</svg>
