<?xml version="1.0" encoding="UTF-8"?>
<!DOCTYPE svg PUBLIC "-//W3C//DTD SVG 1.1//EN" "http://www.w3.org/Graphics/SVG/1.1/DTD/svg11.dtd">
<!-- Creator: CorelDRAW 2017 -->
<svg xmlns="http://www.w3.org/2000/svg" xml:space="preserve" width="0.854165in" height="0.854165in" version="1.1" style="shape-rendering:geometricPrecision; text-rendering:geometricPrecision; image-rendering:optimizeQuality; fill-rule:evenodd; clip-rule:evenodd"
viewBox="0 0 1456.99 1456.99"
 xmlns:xlink="http://www.w3.org/1999/xlink">
 <defs>
  <style type="text/css">
   <![CDATA[
    .str0 {stroke:#FF5B24;stroke-width:35.54;stroke-miterlimit:2.61313}
    .fil1 {fill:#FF5B24}
    .fil0 {fill:white}
   ]]>
  </style>
 </defs>
 <g id="Layer_x0020_1">
  <metadata id="CorelCorpID_0Corel-Layer"/>
  <g id="_2401357356208">
   <circle id="Oval-4-Copy-38" class="fil0 str0" cx="728.5" cy="728.5" r="710.73"/>
   <path id="Fill-1" class="fil1" d="M944.81 284.3l0 61.38 -432.62 0 0 -61.38 -30.91 0 0 61.38 -108.15 0 0 798.01 710.73 0 0 -798.01 -108.15 0 0 -61.38 -30.9 0zm-540.77 828.69l648.92 0 0 -736.64 -648.92 0 0 736.64z"/>
   <polygon id="Fill-2" class="fil1" points="790.3,345.68 821.2,345.68 821.2,284.29 790.3,284.29 "/>
   <polygon id="Fill-3" class="fil1" points="635.8,345.68 666.69,345.68 666.69,284.29 635.8,284.29 "/>
   <polygon id="Fill-4" class="fil1" points="481.28,775.37 975.71,775.37 975.71,744.68 481.28,744.68 "/>
   <polygon id="Fill-5" class="fil1" points="481.28,882.79 975.71,882.79 975.71,852.1 481.28,852.1 "/>
   <polygon id="Fill-6" class="fil1" points="481.28,990.22 975.71,990.22 975.71,959.53 481.28,959.53 "/>
   <path id="Fill-7" class="fil1" d="M541.58 616.84c26.68,0 43.74,-15.65 43.74,-45.09 0,-29.1 -17.43,-44.73 -43.74,-44.73l-19.64 0 0 89.82 19.64 0zm-43.54 -110.26l44.84 0c40.57,0 67.07,23.94 67.07,65.17 0,41.22 -26.5,65.51 -67.07,65.51l-44.84 0 0 -130.68z"/>
   <path id="Fill-9" class="fil1" d="M676.55 529.23c0,0 -2.96,12.89 -5.56,20.24l-11.66 34.97 34.46 0 -11.66 -34.97c-2.41,-7.35 -5.19,-20.24 -5.19,-20.24l-0.38 0zm23.16 74.54l-46.14 0 -11.12 33.5 -24.65 0 46.32 -130.68 25.02 0 46.33 130.68 -24.64 0 -11.13 -33.5z"/>
   <path id="Fill-11" class="fil1" d="M755.38 603.78c0,0 14.26,13.79 32.8,13.79 10.01,0 19.08,-5.16 19.08,-15.82 0,-23.37 -62.08,-19.33 -62.08,-59.45 0,-21.72 18.9,-37.92 44.11,-37.92 25.94,0 39.27,14 39.27,14l-10.38 19.32c0,0 -12.59,-11.42 -29.08,-11.42 -11.12,0 -19.84,6.45 -19.84,15.65 0,23.19 61.9,17.47 61.9,59.26 0,20.79 -15.93,38.27 -43.36,38.27 -29.28,0 -45.41,-17.84 -45.41,-17.84l12.98 -17.85z"/>
   <polygon id="Fill-13" class="fil1" points="855.13,506.59 879.03,506.59 879.03,561.98 939.26,561.98 939.26,506.59 963.16,506.59 963.16,637.27 939.26,637.27 939.26,582.41 879.03,582.41 879.03,637.27 855.13,637.27 "/>
  </g>
 </g>
</svg>
