<?xml version="1.0" encoding="UTF-8"?>
<!DOCTYPE svg PUBLIC "-//W3C//DTD SVG 1.1//EN" "http://www.w3.org/Graphics/SVG/1.1/DTD/svg11.dtd">
<!-- Creator: CorelDRAW 2017 -->
<svg xmlns="http://www.w3.org/2000/svg" xml:space="preserve" width="0.854165in" height="0.854165in" version="1.1" style="shape-rendering:geometricPrecision; text-rendering:geometricPrecision; image-rendering:optimizeQuality; fill-rule:evenodd; clip-rule:evenodd"
viewBox="0 0 854.17 854.17"
 xmlns:xlink="http://www.w3.org/1999/xlink">
 <defs>
  <style type="text/css">
   <![CDATA[
    .str0 {stroke:#FF5B24;stroke-width:20.83;stroke-miterlimit:2.61313}
    .str1 {stroke:white;stroke-width:20.83;stroke-miterlimit:2.61313}
    .fil1 {fill:#FF5B24}
    .fil0 {fill:white}
   ]]>
  </style>
 </defs>
 <g id="Layer_x0020_1">
  <metadata id="CorelCorpID_0Corel-Layer"/>
  <circle id="Oval-4-Copy-39" class="fil0 str0" cx="427.08" cy="427.08" r="416.67"/>
  <path id="Page-1-Copy" class="fil1" d="M328.87 529.06c4.94,0 8.93,-4.04 8.93,-9.04 0,-5 -3.99,-9.05 -8.93,-9.05l-89.29 0c-4.94,0 -8.93,4.04 -8.93,9.05 0,5 3.99,9.04 8.93,9.04l89.29 0zm71.43 -36.18c4.94,0 8.93,-4.05 8.93,-9.05 0,-5 -3.99,-9.05 -8.93,-9.05l-160.71 0c-4.94,0 -8.93,4.05 -8.93,9.05 0,5 3.99,9.05 8.93,9.05l160.71 0zm258.93 -199.02l-464.28 0 0 -18.09c0,-9.99 8,-18.09 17.85,-18.09l428.57 0c9.85,0 17.85,8.11 17.85,18.09l0 18.09zm0 253.29c0,9.98 -8,18.09 -17.85,18.09l-428.57 0c-9.85,0 -17.85,-8.11 -17.85,-18.09l0 -180.92 464.28 0 0 180.92zm-446.43 -307.57c-19.72,0 -35.71,16.2 -35.71,36.19l0 271.38c0,19.98 15.99,36.18 35.71,36.18l428.57 0c19.72,0 35.71,-16.2 35.71,-36.18l0 -271.38c0,-19.98 -15.99,-36.19 -35.71,-36.19l-428.57 0zm357.15 289.47l53.57 0 0 -54.28 -53.57 0 0 54.28z"/>
  <g id="Shape">
   <g>
    <path class="fil1" d="M621.58 509.79l-18.56 0 0 -14.44c0,-29.89 -13.76,-47.44 -41.25,-47.44 -27.49,0 -41.25,17.56 -41.25,47.44l0 14.44 -20.63 0c-5.7,0 -10.31,6.68 -10.31,12.37l0 80.45c0,5.67 4.42,11.74 9.81,13.48l12.35 3.98c5.39,1.74 14.46,3.17 20.12,3.17l59.82 0c5.67,0 14.73,-1.43 20.14,-3.17l12.34 -3.98c5.4,-1.74 9.81,-7.81 9.81,-13.48l0 -80.45c-0.01,-5.7 -6.7,-12.37 -12.4,-12.37l0 0zm-80.45 -18.56c0,-14.91 8.23,-22.69 20.63,-22.69 12.4,0 20.63,7.79 20.63,22.69l0 18.56 -41.25 0 0 -18.56 0 0z"/>
   </g>
   <path class="fil1 str1" d="M510.1 499.37l0 -4.02c0,-35.93 18.56,-57.85 51.67,-57.85 33.11,0 51.67,21.92 51.67,57.85l0 4.02 8.15 0c11.44,0 22.79,11.33 22.81,22.79l0 80.45c0,10.19 -7.33,20.27 -17.03,23.39l-12.35 3.98c-6.44,2.07 -16.58,3.67 -23.33,3.67l-59.82 0c-6.75,0 -16.89,-1.6 -23.32,-3.67l-12.34 -3.98c-9.7,-3.13 -17.04,-13.2 -17.04,-23.39l0 -80.45c0,-11.36 8.95,-22.79 20.73,-22.79l10.21 0zm41.45 0l20.42 0 0 -8.15c0,-8.81 -3.27,-12.27 -10.21,-12.27 -6.94,0 -10.21,3.45 -10.21,12.27l0 8.15z"/>
  </g>
 </g>
</svg>
