<?xml version="1.0" encoding="UTF-8"?>
<!DOCTYPE svg PUBLIC "-//W3C//DTD SVG 1.1//EN" "http://www.w3.org/Graphics/SVG/1.1/DTD/svg11.dtd">
<!-- Creator: CorelDRAW 2017 -->
<svg xmlns="http://www.w3.org/2000/svg" xml:space="preserve" width="1.45833in" height="0.770835in" version="1.1" style="shape-rendering:geometricPrecision; text-rendering:geometricPrecision; image-rendering:optimizeQuality; fill-rule:evenodd; clip-rule:evenodd"
viewBox="0 0 1458.34 770.84"
 xmlns:xlink="http://www.w3.org/1999/xlink">
 <defs>
  <style type="text/css">
   <![CDATA[
    .str0 {stroke:#FF5B24;stroke-width:20.83;stroke-miterlimit:2.61313}
    .fil0 {fill:none}
   ]]>
  </style>
 </defs>
 <g id="Layer_x0020_1">
  <metadata id="CorelCorpID_0Corel-Layer"/>
  <path id="Combined-Shape-Copy-16" class="fil0 str0" d="M864.19 577.95l-0.49 7.38 -7.13 1.97c-38.09,10.56 -64.91,45.13 -64.91,84.94 0,48.68 39.78,88.18 88.89,88.18 42.79,0 42.79,0 147.04,0 134.98,0 134.98,0 331.43,0 49.11,0 88.89,-39.5 88.89,-88.18 0,-48.69 -39.78,-88.18 -88.89,-88.18 -1.48,0 -3.12,0.07 -4.91,0.2l-14.89 1.09 4.11 -14.35c3.48,-12.15 5.27,-24.8 5.27,-37.69 0,-75.91 -62.01,-137.48 -138.54,-137.48 -50.65,0 -96.48,27.19 -120.85,70.2l-5.3 9.35 -9.18 -5.59c-21.59,-13.13 -46.41,-20.19 -72.31,-20.19 -73.1,0 -133.49,56.36 -138.24,128.34z"/>
  <path id="Combined-Shape-Copy-17" class="fil0 str0" d="M82.94 192.54l-0.48 7.38 -7.13 1.97c-38.09,10.56 -64.91,45.14 -64.91,84.94 0,48.68 39.78,88.18 88.89,88.18 42.79,0 42.79,0 147.04,0 134.98,0 134.98,0 331.43,0 49.11,0 88.89,-39.5 88.89,-88.18 0,-48.69 -39.78,-88.18 -88.89,-88.18 -1.48,0 -3.11,0.06 -4.91,0.19l-14.89 1.09 4.11 -14.35c3.48,-12.15 5.27,-24.8 5.27,-37.69 0,-75.91 -62.01,-137.48 -138.54,-137.48 -50.65,0 -96.48,27.19 -120.85,70.2l-5.3 9.35 -9.18 -5.59c-21.58,-13.13 -46.41,-20.19 -72.31,-20.19 -73.11,0 -133.49,56.36 -138.24,128.34z"/>
 </g>
</svg>
