<?xml version="1.0" encoding="UTF-8"?>
<!DOCTYPE svg PUBLIC "-//W3C//DTD SVG 1.1//EN" "http://www.w3.org/Graphics/SVG/1.1/DTD/svg11.dtd">
<!-- Creator: CorelDRAW 2017 -->
<svg xmlns="http://www.w3.org/2000/svg" xml:space="preserve" width="2.14583in" height="2.14583in" version="1.1" style="shape-rendering:geometricPrecision; text-rendering:geometricPrecision; image-rendering:optimizeQuality; fill-rule:evenodd; clip-rule:evenodd"
viewBox="0 0 2145.84 2145.84"
 xmlns:xlink="http://www.w3.org/1999/xlink">
 <defs>
  <style type="text/css">
   <![CDATA[
    .str0 {stroke:#FF5B24;stroke-width:20.83;stroke-miterlimit:2.61313}
    .fil1 {fill:none}
    .fil2 {fill:#23BCC0}
    .fil0 {fill:white}
    .fil3 {fill:#FF5B24;fill-rule:nonzero}
   ]]>
  </style>
 </defs>
 <g id="Layer_x0020_1">
  <metadata id="CorelCorpID_0Corel-Layer"/>
  <circle id="Oval-4-Copy-37" class="fil0 str0" cx="1072.92" cy="1072.92" r="1062.5"/>
  <path class="fil0" d="M1371.39 1229.17l-617.78 0 0 333.33 -102.96 0 0 -333.33 -72.03 0c-11.5,0 -20.83,-9.33 -20.83,-20.83 0,-0.02 0,-0.03 0,-0.05l0.14 -62.5c0.03,-11.49 9.35,-20.79 20.83,-20.79l967.48 0c11.49,0 20.81,9.3 20.83,20.79l0.15 62.5c0.02,11.5 -9.28,20.85 -20.79,20.88 -0.02,0 -0.03,0 -0.05,0l-72.03 0 0 333.33 -102.96 0 0 -333.33 0 0z"/>
  <path class="fil1 str0" d="M1381.81 1552.08l82.13 0 0 -333.33 82.44 0c0.01,0 0.01,0 0.02,0 5.75,-0.02 10.41,-4.69 10.39,-10.44l-0.15 -62.5c-0.01,-5.74 -4.67,-10.39 -10.42,-10.39l-967.48 0c-5.74,0 -10.41,4.65 -10.42,10.39l-0.15 62.5c0,0.01 0,0.01 0,0.02 0,5.75 4.67,10.42 10.42,10.42l82.44 0 0 333.33 82.13 0 0 -333.33 638.62 0 0 333.33 0.03 0z"/>
  <path class="fil0" d="M927.58 906.25l269.8 0c14.7,0 27.41,10.24 30.54,24.59l60.04 275.46c18.38,84.31 -35.07,167.56 -119.39,185.94 -10.93,2.39 -22.09,3.59 -33.28,3.59l-145.63 0c-86.3,0 -156.25,-69.96 -156.25,-156.25 0,-11.19 1.2,-22.34 3.58,-33.28l60.04 -275.46c3.13,-14.36 15.84,-24.59 30.54,-24.59l0.01 -0z"/>
  <path class="fil1 str0" d="M927.58 916.67c-9.8,0 -18.27,6.83 -20.36,16.4l-60.04 275.46c-2.22,10.2 -3.35,20.62 -3.35,31.06 0,80.54 65.3,145.83 145.83,145.83l145.63 0c10.44,0 20.85,-1.12 31.06,-3.35 78.69,-17.15 128.58,-94.85 111.43,-173.55l-60.04 -275.46c-2.09,-9.57 -10.56,-16.4 -20.36,-16.4l-269.8 0 -0 0.01z"/>
  <line id="Path-21-Copy-2" class="fil1 str0" x1="1000" y1="1031.25" x2="1125" y2= "1031.25" />
  <line id="Path-16-Copy-3" class="fil1 str0" x1="979.17" y1="1375.01" x2="906.25" y2= "1541.67" />
  <line id="Path-16-Copy-4" class="fil1 str0" x1="1156.25" y1="1375.01" x2="1229.17" y2= "1541.67" />
  <path id="Fill-1" class="fil2" d="M984.37 193.2c2.86,-2.06 5.75,-3.96 8.68,-5.7 -2.93,1.74 -5.82,3.65 -8.68,5.7z"/>
  <polygon class="fil3" points="932.44,703.99 847.12,341.1 922.64,341.1 976.61,590.37 1042.84,341.1 1130.19,341.1 1193.54,594.6 1248.79,341.1 1322.53,341.1 1235.1,703.99 1156.63,703.99 1085.07,432.67 1013.02,703.99 "/>
 </g>
</svg>
