<svg xmlns:svg="http://www.w3.org/2000/svg" xmlns="http://www.w3.org/2000/svg" version="1.1" x="0" y="0" width="52" height="50" viewBox="0 0 52 50" xml:space="preserve"><style>.s0{fill:#ff5c26;}</style><path d="M26 5.4l5.3 13.1 0.5 1.2 1.2 0.1 14 1 -10.8 9.2 -0.9 0.8 0.3 1.2 3.4 13.8 -11.9-7.5L26 37.5l-1.1 0.7 -11.9 7.5 3.4-13.8 0.3-1.2 -0.9-0.8L5 20.7l14-1 1.2-0.1 0.5-1.2L26 5.4M26 0l-7.1 17.7L0 19.1l14.5 12.3L9.9 50 26 39.9 42.1 50l-4.5-18.6L52 19.1 33.1 17.7 26 0 26 0z" fill="#ff5c26" /></svg>