<?xml version="1.0" encoding="UTF-8"?>
<!DOCTYPE svg PUBLIC "-//W3C//DTD SVG 1.1//EN" "http://www.w3.org/Graphics/SVG/1.1/DTD/svg11.dtd">
<!-- Creator: CorelDRAW 2017 -->
<svg xmlns="http://www.w3.org/2000/svg" xml:space="preserve" width="2.29166in" height="2.52083in" version="1.1" style="shape-rendering:geometricPrecision; text-rendering:geometricPrecision; image-rendering:optimizeQuality; fill-rule:evenodd; clip-rule:evenodd"
viewBox="0 0 2291.66 2520.83"
 xmlns:xlink="http://www.w3.org/1999/xlink">
 <defs>
  <style type="text/css">
   <![CDATA[
    .str0 {stroke:#FF5B24;stroke-width:20.83;stroke-miterlimit:2.61313}
    .fil2 {fill:none}
    .fil0 {fill:#FF5B24}
    .fil1 {fill:white}
   ]]>
  </style>
 </defs>
 <g id="Layer_x0020_1">
  <metadata id="CorelCorpID_0Corel-Layer"/>
  <ellipse id="Oval-4-Copy-32" class="fil0" cx="1145.83" cy="2369.79" rx="1145.83" ry="151.04"/>
  <path class="fil1" d="M718.75 541.67l666.67 0c11.51,0 20.83,9.33 20.83,20.83l0 1812.5 -708.33 0 0 -1812.5c0,-11.5 9.33,-20.83 20.83,-20.83z"/>
  <path class="fil2 str0" d="M708.33 2364.58l687.5 0 0 -1802.08c0,-5.75 -4.67,-10.42 -10.42,-10.42l-666.67 0c-5.75,0 -10.42,4.67 -10.42,10.42l0 1802.08z"/>
  <path id="Rectangle-Copy-58" class="fil2 str0" d="M812.5 552.08l479.17 0 0 -114.58c0,-5.75 -4.67,-10.42 -10.42,-10.42l-458.33 0c-5.75,0 -10.42,4.67 -10.42,10.42l0 114.58z"/>
  <path id="Rectangle-Copy-59" class="fil2 str0" d="M916.67 427.08l270.83 0 0 -197.91c0,-5.76 -4.66,-10.42 -10.41,-10.42l-250 0c-5.76,0 -10.42,4.66 -10.42,10.42l0 197.91z"/>
  <path class="fil0" d="M843.75 718.75l145.83 0c11.51,0 20.84,9.33 20.84,20.83l-0.01 62.5c0.01,11.51 -9.32,20.84 -20.83,20.84l-145.84 -0c-11.5,0 -20.83,-9.33 -20.83,-20.83l-0.01 -62.5c0.01,-11.5 9.34,-20.83 20.84,-20.83z"/>
  <path class="fil0" d="M1114.58 718.75l145.83 0c11.5,0 20.83,9.33 20.83,20.83l0 62.5c0,11.51 -9.33,20.84 -20.83,20.84l-145.83 -0c-11.5,0 -20.83,-9.33 -20.83,-20.83l-0 -62.5c0,-11.5 9.33,-20.83 20.84,-20.83z"/>
  <path class="fil0" d="M843.75 927.08l145.83 0c11.51,0 20.84,9.33 20.84,20.84l-0.01 62.5c0.01,11.51 -9.32,20.84 -20.83,20.84l-145.84 -0c-11.5,0 -20.83,-9.33 -20.83,-20.83l-0.01 -62.5c0.01,-11.5 9.34,-20.83 20.84,-20.83z"/>
  <path class="fil0" d="M1114.58 927.08l145.83 0c11.5,0 20.83,9.33 20.83,20.84l0 62.5c0,11.51 -9.33,20.84 -20.83,20.84l-145.83 -0c-11.5,0 -20.83,-9.33 -20.83,-20.83l-0 -62.5c0,-11.5 9.33,-20.83 20.84,-20.83z"/>
  <path class="fil0" d="M843.75 1135.42l145.83 0c11.51,0 20.84,9.33 20.84,20.84l-0.01 62.5c0.01,11.51 -9.32,20.84 -20.83,20.84l-145.84 -0.01c-11.5,0.01 -20.83,-9.32 -20.83,-20.83l-0.01 -62.5c0.01,-11.5 9.34,-20.83 20.84,-20.83z"/>
  <path class="fil0" d="M1114.58 1135.42l145.83 0c11.5,0 20.83,9.33 20.83,20.84l0 62.5c0,11.51 -9.33,20.84 -20.83,20.84l-145.83 -0.01c-11.5,0.01 -20.83,-9.32 -20.83,-20.83l-0 -62.5c0,-11.5 9.33,-20.83 20.84,-20.83z"/>
  <path class="fil0" d="M843.75 1343.75l145.83 0c11.51,-0.01 20.84,9.32 20.84,20.83l-0.01 62.5c0.01,11.5 -9.32,20.83 -20.83,20.83l-145.84 0c-11.5,-0 -20.83,-9.33 -20.83,-20.84l-0.01 -62.5c0.01,-11.51 9.34,-20.84 20.84,-20.84z"/>
  <path class="fil0" d="M1114.58 1343.75l145.83 0c11.5,-0.01 20.83,9.32 20.83,20.83l0 62.5c0,11.5 -9.33,20.83 -20.83,20.83l-145.83 0c-11.5,-0 -20.83,-9.33 -20.83,-20.84l-0 -62.5c0,-11.51 9.33,-20.84 20.84,-20.84z"/>
  <path class="fil0" d="M843.75 1552.08l145.83 0c11.51,-0 20.84,9.33 20.84,20.83l-0.01 62.5c0.01,11.5 -9.32,20.83 -20.83,20.83l-145.84 0c-11.5,-0 -20.83,-9.33 -20.83,-20.84l-0.01 -62.5c0.01,-11.51 9.34,-20.84 20.84,-20.84z"/>
  <path class="fil0" d="M843.75 1760.42l145.83 0c11.51,-0 20.84,9.33 20.84,20.83l-0.01 62.5c0.01,11.5 -9.32,20.83 -20.83,20.83l-145.84 0c-11.5,0 -20.83,-9.33 -20.83,-20.83l-0.01 -62.5c0.01,-11.51 9.34,-20.84 20.84,-20.84z"/>
  <path class="fil0" d="M1114.58 1552.08l145.83 0c11.5,-0 20.83,9.33 20.83,20.83l0 62.5c0,11.5 -9.33,20.83 -20.83,20.83l-145.83 0c-11.5,-0 -20.83,-9.33 -20.83,-20.84l-0 -62.5c0,-11.51 9.33,-20.84 20.84,-20.84z"/>
  <path class="fil0" d="M1114.58 1760.42l145.83 0c11.5,-0 20.83,9.33 20.83,20.83l0 62.5c0,11.5 -9.33,20.83 -20.83,20.83l-145.83 0c-11.5,0 -20.83,-9.33 -20.83,-20.83l-0 -62.5c0,-11.51 9.33,-20.84 20.84,-20.84z"/>
  <path class="fil1" d="M1406.25 1270.83l666.67 0c11.51,0 20.83,9.33 20.83,20.83l0 578.84 0 504.49 -708.33 0 0 -1083.33c0,-11.51 9.33,-20.83 20.83,-20.83z"/>
  <path class="fil2 str0" d="M1395.83 2364.58l687.5 0 0 -1072.91c0,-5.76 -4.67,-10.42 -10.42,-10.42l-666.67 0c-5.75,0 -10.42,4.66 -10.42,10.42l0 1072.91z"/>
  <path id="Rectangle-Copy-73" class="fil2 str0" d="M1500 1281.25l479.17 0 0 -72.92c0,-5.75 -4.67,-10.42 -10.42,-10.42l-458.33 0c-5.75,0 -10.42,4.67 -10.42,10.42l0 72.92z"/>
  <path class="fil0" d="M1531.25 1427.08l145.83 0c11.5,-0 20.83,9.33 20.83,20.83l-0 62.5c0,11.5 -9.33,20.83 -20.83,20.83l-145.83 0c-11.5,-0 -20.83,-9.33 -20.83,-20.84l0 -62.5c0,-11.51 9.33,-20.84 20.83,-20.84z"/>
  <path class="fil0" d="M1802.08 1427.08l145.83 0c11.5,-0 20.83,9.33 20.83,20.83l0 62.5c0,11.5 -9.33,20.83 -20.83,20.83l-145.83 0c-11.5,-0 -20.83,-9.33 -20.83,-20.84l0 -62.5c0,-11.51 9.33,-20.84 20.83,-20.84z"/>
  <path class="fil0" d="M1531.25 1635.42l145.83 0c11.5,-0 20.83,9.33 20.83,20.83l-0 62.5c0,11.5 -9.33,20.83 -20.83,20.83l-145.83 0c-11.5,0 -20.83,-9.33 -20.83,-20.83l0 -62.5c0,-11.51 9.33,-20.84 20.83,-20.84z"/>
  <path class="fil0" d="M1802.08 1635.42l145.83 0c11.5,-0 20.83,9.33 20.83,20.83l0 62.5c0,11.5 -9.33,20.83 -20.83,20.83l-145.83 0c-11.5,0 -20.83,-9.33 -20.83,-20.83l0 -62.5c0,-11.51 9.33,-20.84 20.83,-20.84z"/>
  <path class="fil0" d="M1531.25 1843.75l145.83 0c11.5,-0.01 20.83,9.32 20.83,20.83l-0 62.5c0,11.5 -9.33,20.83 -20.83,20.83l-145.83 0c-11.5,-0 -20.83,-9.33 -20.83,-20.84l0 -62.5c0,-11.51 9.33,-20.84 20.83,-20.84z"/>
  <path class="fil0" d="M1802.08 1843.75l145.83 0c11.5,-0.01 20.83,9.32 20.83,20.83l0 62.5c0,11.5 -9.33,20.83 -20.83,20.83l-145.83 0c-11.5,-0 -20.83,-9.33 -20.83,-20.84l0 -62.5c0,-11.51 9.33,-20.84 20.83,-20.84z"/>
  <path class="fil1" d="M239.58 1583.33l458.33 0c11.51,0 20.83,9.33 20.83,20.83l0 409.12 0 361.71 -500 0 0 -770.83c0,-11.51 9.33,-20.83 20.83,-20.83z"/>
  <path class="fil2 str0" d="M229.17 2364.58l479.17 0 0 -760.41c0,-5.76 -4.67,-10.42 -10.42,-10.42l-458.33 0c-5.76,0 -10.42,4.66 -10.42,10.42l0 760.41z"/>
  <path class="fil1" d="M333.33 1520.83l250 0c11.51,0 20.83,9.33 20.83,20.83l0 24.43 0 38.07 -291.67 0 0 -62.5c0,-11.51 9.33,-20.83 20.83,-20.83z"/>
  <path class="fil2 str0" d="M322.91 1593.75l270.83 0 0 -52.08c0,-5.76 -4.67,-10.42 -10.42,-10.42l-250 0c-5.75,0 -10.42,4.66 -10.42,10.42l0 52.08z"/>
  <path class="fil0" d="M395.83 1739.58l145.83 0c11.51,-0 20.84,9.33 20.84,20.83l-0.01 62.5c0.01,11.5 -9.32,20.83 -20.82,20.83l-145.84 0c-11.5,-0 -20.83,-9.33 -20.83,-20.84l-0.01 -62.5c0.01,-11.51 9.34,-20.84 20.84,-20.84z"/>
  <path class="fil0" d="M395.83 1947.92l145.83 0c11.51,-0 20.84,9.33 20.84,20.83l-0.01 62.5c0.01,11.5 -9.32,20.83 -20.82,20.83l-145.84 0c-11.5,0 -20.83,-9.33 -20.83,-20.83l-0.01 -62.5c0.01,-11.51 9.34,-20.84 20.84,-20.84z"/>
  <rect id="Rectangle-Copy-84" class="fil0" x="1031.25" width="41.67" height="229.17"/>
 </g>
</svg>
